<?xml version="1.0" encoding="utf-8"?>
<!-- Generator: Adobe Illustrator 18.1.1, SVG Export Plug-In . SVG Version: 6.00 Build 0)  -->
<svg version="1.1" id="layer1" xmlns="http://www.w3.org/2000/svg" xmlns:xlink="http://www.w3.org/1999/xlink" x="0px" y="0px"
	 viewBox="0 0 1000 1000" enable-background="new 0 0 1000 1000" xml:space="preserve">
<g>
	<g>
		<g>
			<path fill="#1E1002" d="M189.5,85.6c-2.6,14.7-4.9,29.2-5.8,44.1c-1.9,31.3-3.7,65,6.6,95.1c1.1,3.2,3.4,0.5,2.5-1.9
				c-8.6-25.1-7.5-52.7-6.6-78.8c0.5-14.6,1.5-29.2,4-43.6c4.7-27.5,10-54.8,15.1-82.2c1.1-6.1,2.3-12.2,3.5-18.3h-2.4
				C199.5,35,192.2,70.9,189.5,85.6z"/>
			<path fill="#1E1002" d="M115.6,138.8c-11.8,21.8-23.9,42.7-40.1,61.5c-1.3,1.5,1.2,5.8,2.7,4.1c15.6-18.2,27.5-38.2,38.9-59.2
				c13.2-24.2,23.6-49.6,32.1-75.8c7.3-22.7,12.4-46,17.2-69.4h-2.8c-4.9,21.6-10.3,43.2-17,64.4C138.4,90,128.4,115.1,115.6,138.8z
				"/>
			<path fill="#1E1002" d="M177.3,231.7c-8-0.6-21.8-0.1-29.8-1c-9-1-14.6-1.6-23.4-3.9c-9.2-2.4-18.3-5.1-26.8-9.4
				c-6.8-3.4-15.7-6.5-21-12.2c-2-2.1-2.7-1.4-0.7,0.7c4.5,4.9,10.7,8.1,16.6,11.1c8.4,4.3,16.8,8,25.9,10.8
				c10.2,3.2,20.8,5.9,31.4,7.7c9.3,1.5,22.9,1.9,32.3,2.6C181.9,238.2,178.6,231.8,177.3,231.7z"/>
			<path fill="#1E1002" d="M139.1,429.7C138.7,429.7,138.7,429.8,139.1,429.7L139.1,429.7z"/>
			<path fill="#1E1002" d="M211.5,257c-2.7-7.4-6.1-15.2-10.6-22.1c-0.3-0.9-0.8-1.7-1.5-2.3c0,0,0,0,0,0c-1.2-1.7-2.4-3.2-3.7-4.7
				c-0.7-0.8-1.9-0.8-2.9-0.4c-0.9-0.4-1.8-0.5-2.3,0.1c-1.9,2.1-6.5,4.3-9.3,3.8c-0.7-0.1-2-0.1-1.5,1c0.5,1,1.5,3.9,2.5,4.1
				c3.2,0.6,7.4,0.2,10.3-1.7c6,7.3,10.3,13.8,13.7,22.5c4.2,10.8,6.3,21.8,7.4,33.3c2.4,24.6-1.7,49.7-10.4,72.8
				c-4,10.4-8.9,20.9-15.7,29.8c-5.5,7.3-12.7,13.2-19.6,19c-28.4,24-43.8,20.2-48.9,19c-3.3-0.7-1.4,1.8,0.7,2.3
				c6.1,1.4,13.8,2.7,19.9,0.8c0.4-0.1,5.6-3,7.2-3.9c7-3.7,13.7-7.9,20.1-12.5c7.7-5.5,14.9-11.7,21.2-18.8
				c7.5-8.5,12.7-18.5,17.3-28.8c10.6-24,15.1-50.7,13.5-76.8C218,280.9,215.8,268.8,211.5,257z"/>
			<path fill="#1E1002" d="M99.7,426.3c-7.3,0.8-15.3-1.3-22.4-2.8c-4.5-1-14.9-5.3-28.1-15.2c-14.2-10.6-22.5-34-25.4-42.4
				c-3.7-10.7-4.6-22.3-4.9-33.5c-0.7-24.6,2-49,12.3-71.4c4.8-10.5,10.4-21.2,17.9-29.9c6.7-7.8,15.6-17.7,24.8-22.5
				c2.6-1.4,2.3-3.6-0.1-2.3c-9.7,5.1-18,13.6-25.1,21.7c-8.3,9.4-14.4,20-19.6,31.4c-10.9,23.6-15.6,50-14.6,76
				c0.4,11.4,1.9,22.9,5.8,33.7c3.3,9.1,8.1,17.6,13.4,25.6c4.2,6.4,8.9,12.6,14,18.4c1.3,1.4,5.3,7.4,7.9,6.6
				c0.3-0.1,13.6,4,18.3,5.2c9.1,2.3,19.8,5.3,29.3,4.3C104.7,429,100.9,426.2,99.7,426.3z"/>
			<path fill="#1E1002" d="M100.8,414.8c-10.2-2.4-22.5-6.5-31.7-11.6c-9.3-5.2-14.9-13.4-19.9-22.6c-9.6-17.7-12.5-38.2-12.1-58.1
				c0.3-17.7,3.1-35.4,8.5-52.3c5-15.6,13.4-37.8,29-45.8c2.9-1.5,2-2.5-0.5-1.2c-15.9,8.1-23.7,26.6-29.1,42.6
				c-6.4,18.8-10.6,37.9-10.9,57.8c-0.3,20.7,3.4,41.7,13.4,60c5.2,9.6,12.3,17.6,21.9,22.9c9.4,5.2,20.1,7.6,30.4,10
				C102.1,417.1,104,415.5,100.8,414.8z"/>
			<path fill="#1E1002" d="M185.8,242.4c-2-2.6-5.8,2.2-4.3,4.2c11.3,14.6,13,33.4,13.6,51.2c0.7,19.1-2.3,38.4-8.2,56.6
				c-5.4,16.3-13.7,35.7-27,47c-11.4,9.7-32.9,20.4-48.2,15.7c-2.7-0.8-0.5,0.9,1.6,1.5c15.9,4.8,33.8-4,46.2-13.3
				c15.3-11.5,24.6-30.5,30.7-48.2c6.5-18.9,9.1-39,8.6-58.9C198.3,279.1,197.9,257.9,185.8,242.4z"/>
		</g>
	</g>
	<g>
		<g>
			<path fill="#1E1002" d="M225.3,915.6c0.1-1.1-3.2-5.5-4.1-6c-11-5.8-34.5-10.8-36.7-2.3c-7.9,30.7-14,61.8-21.1,92.7h2.8
				c6.2-30.4,12-60.9,21.7-90.3c2.3-7.2,34.9-3,34,7.3c-0.7,8.2-7.9,45.1-15.5,83h2.4c2.4-12.7,4.8-25.3,7.3-38
				C219.3,949.5,225.1,917,225.3,915.6z"/>
		</g>
	</g>
</g>
<g>
	<g>
		<g>
			<path fill="#1E1002" d="M313.7,92.7c-1.9,26.8-2.2,53.8-3.6,80.7c-0.6,11.4-2.5,22.6-1.2,33.9c5.5,47.9-22.7,39.1-31.2,37.4
				c-8.1-1.5-15.9-4.5-23.9-6.4c-3.4-0.8-6.7-1.7-9.9-3.1c-3.6-1.6-4.9-4.6-6-8.2c-2.3-7.2-2.4-15.3-2.4-22.8c0,0-0.1,0-0.2,0
				c0.1-23.5,1.7-47,3-70.5c1.4-25.6,1.9-51.7,5.7-77.1c0.1-0.4,0-0.7-0.2-1c1.4-4,7.1-4.9,10.8-5.3c7.9-1,16-0.1,23.8,0.8
				c7.5,0.9,15,2.1,22.5,3.5c5.3,1,9.6,1.1,13.6,4.4c0.5,3.3,0.2,6.6,0,9.9c-0.5,6.1-0.9,12.1-0.9,18.2c0,1.4,3.5,4.1,3.5,3.4
				c0.1-8.2,1.2-16.3,1.3-24.5c0.1-5.9-2.4-8.9-7.2-12.3c-1.9-1.4-4.5-1.4-6.8-1.9c-4.2-0.8-8.4-1.6-12.7-2.3
				c-11.2-1.9-22.7-3.6-34.1-3.4c-5.3,0.1-17,0.3-17.5,7.7c-0.3,0.2-0.4,0.4-0.5,0.9c-3.8,25.3-4.4,51.3-5.8,76.9
				c-1.3,24.2-3,48.5-3.1,72.8c0,0.3,0.1,0.5,0.2,0.7c-0.2,0.1-0.3,0.2-0.3,0.4c0,5,0.2,10,0.8,15c0.6,4.6,1.4,11.2,5.1,14.5
				c3.3,2.9,8.6,3.8,12.7,4.7c5.8,1.4,11.3,3.1,17,4.7c5.7,1.6,11.5,2.5,17.3,3.2c5.8,0.8,11.5,1.7,17.4,0.7
				c2.9-0.5,5.5-0.4,7.4-2.8c2.6-3.2,3.8-7.6,4.5-11.5c2-10.2,1.2-21,0.9-31.4c-0.2-8,0.5-15.8,0.9-23.7c1.3-21,1.9-42,2.7-63
				c0.3-8.1,0.6-16.1,1.2-24.2C318.6,91.6,313.8,91.8,313.7,92.7z"/>
			<path fill="#1E1002" d="M462.5,12c1.1-0.5-56.4,15.9-71.4,19.7c-24.8,6.3-80.9,20.8-77.7,20.7c6.8-0.3,1.9,3.7,8.5,2.2
				c14.6-3.6,143.9-40.3,145.2-40.9C470,12.3,463.8,11.4,462.5,12z"/>
			<path fill="#1E1002" d="M469.5,8.2c-3.1,1.2-1.5,3,0.9,2.1c7.6-2.8,15.5-6.2,23.8-6.1c10.1,0.1,15.3,9.6,18,18.1
				c3.1,9.8,3.2,20.5,3,30.7c-0.2,11.9-7.1,74.6-6.6,94.4c0.3,12,2,34-12.7,38.5c-1.8,0.5-165,54.9-183.8,60
				c-3.2,0.9-0.9,3.2,1.5,2.6c19.2-5.2,186.4-60.2,187.2-60.4c15.4-4.7,12.8-22.2,12.8-35.7c0-8.1,6.5-93.1,6.5-105.1
				c0-11.7-1.1-23.9-6.7-34.5c-1.7-3.2-3.7-5.6-6-7.3c-0.5-0.8-1.7-2-4.1-4c-0.6-0.5-1.4-1-2.3-1.4h-10.8c1.3,0.5,2.7,1.1,4.2,1.7
				C486.2,1.9,477.2,5.3,469.5,8.2z"/>
			<path fill="#1E1002" d="M643.2,98.3c-2.5,41.9-43.7,50.5-61.5,55.4c-20.2,5.7-51.3,18.3-70.1,27.6c-2.9,1.4,5.7,1.2,6.9,0.6
				c19.4-9.6,38.5-14.6,59.4-20.4c17.4-4.8,56.6-21.9,57.3-22.6c10.6-10,11.7-25.3,12.7-39c1.5-19.6,1.5-39.3,1.1-59
				c-0.3-13.7-1.4-27.3-2.4-40.9h-5c0.2,17.7,2.3,29.1,2.6,43.9C644.5,61.9,644.3,80.2,643.2,98.3z"/>
			<path fill="#1E1002" d="M512.1,2c-0.3,0.6,5.3-0.2,14.3-2h-9.4C514.1,0.9,512.2,1.6,512.1,2z"/>
			<path fill="#1E1002" d="M504.6,23.2c-7.8-5.9-21.2-2.8-29.9-1.3c-32.9,5.6-64.5,17-96.8,25.1c-4.8,1.2-9.6,2.4-14.6,2.8
				c-2,0.1,0.2,2.1,1.6,1.9c12.5-2.1,24.6-5.6,35.9-8.8c17.2-4.8,35.7-9.4,53-13.8c14-3.5,27.9-6,42.5-5.7c2,0,8.3,5.8,8.8,7.8
				c3.8,15.1,3,31,1.9,46.4c-0.9,11.9-2.3,23.8-3.3,35.7c-1,12.2-1.9,24.4-3.5,36.5c-0.9,6.9-0.6,12.8-5.9,17.4
				c-5.6,4.8-14.2,8.9-20.9,11.7c-35.7,14.8-74.1,19.2-111,30c-0.8,0.2-2.2-1.4-3-1.1c0,0,0,0-0.1,0c-0.4-0.3-3.7,1-4.4,1.1
				c-9.5,1.4-12.1-16.9-13.4-23.4c-3-15.1-2.8-28.9-2.5-44.2c0.3-14.7,0.8-31.3,2.1-45.9c0.9-9.6,2.6-18.3,5.4-27.5
				c1.1-3.7,4.5-8.8,8.4-10.5c2.8-1.2,1.6-4.7-1.3-3.4c-11,4.8-12.5,21.5-13.6,32c-1.3,11.8-2.3,23.7-2.9,35.6
				c-0.9,16-1.3,32.1-0.2,48.1c0.8,11.7,1.7,25.2,8,35.4c2.8,4.5,7.4,7,12.7,6.3c1.2-0.2,2-1,2.2-1.9c0.9,0.9,2.3,1.9,3.2,1.6
				c36.7-11.3,75.2-16.4,111.1-30.2c9.9-3.8,26.1-9.7,29.2-21.3c2.8-10.6,2.9-22.3,3.8-33.2c1-12,1.8-24,3.3-36
				c1.7-13.9,2.3-56.7-2.7-63.2C506.6,25.8,505.9,24.2,504.6,23.2z"/>
			<path fill="#1E1002" d="M287.3,28.9c-11.9,2.8-23.9,6.2-34.8,11.9c-2,1.1-3.4,3-0.4,1.5c20.3-10.7,44.8-12.5,66.8-18.2
				c12.6-3.3,25.3-6.5,37.9-9.8C371.1,10.5,395.3,5,416.7,0h-17.1c-7.8,2.2-15,4.2-20.5,5.6C348.6,13.6,318,21.7,287.3,28.9z"/>
			<path fill="#1E1002" d="M294.8,232.7c-9.8,0.5-20.2-6.1-29.3-9c-1.6-0.5-3.1-0.8-4.6-1c1.3-11.3,0.1-68.9-0.4-83.4
				c-0.5-14-0.8-28-2.1-42c-1-10.1-2.8-22.6,1.5-32.2c0.5-1.1-3.1-3.9-3.1-3.9c-4.1,9-0.2,57,0.4,70.5c0.6,15.4,0.5,30.7,0.5,46.2
				c0,7.3-0.1,14.5-0.7,21.8c-0.5,6.1-0.4,17-2.3,23.3c-3.2,0.7-6.3,2.2-9.4,4.2c-2.7,1.8,0.1,4.6,2.6,3.1c3.6-2.3,5.1-5.9,9.5-5.6
				c4.2,0.3,10.6,4.4,14.5,5.8c6.9,2.6,13.7,4.3,21.2,3.9C295.9,234.3,298.1,232.5,294.8,232.7z"/>
		</g>
	</g>
	<g>
		<g>
			<path fill="#1E1002" d="M470.7,991.5c-9.3-2-11.5,0.6-10.2,0.4c3.6-0.3,22.5,6,26,6.9c1.1,0.3,2.4,0.7,3.8,1.2h10.8
				c-4.9-2.5-13.2-4.3-17.5-5.3C481.5,994.2,474.4,992.4,470.7,991.5z"/>
			<path fill="#1E1002" d="M470.7,991.5c0.5,0.1,1.1,0.2,1.6,0.4C467,990.5,467.8,990.7,470.7,991.5z"/>
			<path fill="#1E1002" d="M629,970.5c-1.1,0-6.5,1.2-3.4,1c8.2-0.5,15.8,14.9,15.8,27.8c0,0.3,0,0.5,0,0.8h5
				c-0.1-1.9-0.3-3.8-0.4-5.6C645.6,987.4,643.5,970,629,970.5z"/>
			<path fill="#1E1002" d="M618.4,972c-20.1,6.6-37.8,12-58.3,16.9c-8.7,2.1-32.8,7.9-43.2,11.2h9.4c28.2-5.5,89.7-19.9,104.2-24.7
				C633.6,974.3,621.3,971,618.4,972z"/>
			<path fill="#1E1002" d="M540.3,958c-27.4,1.8-52.3,19.8-79.5,23.1c-2.6,0.3,0.9,1.5,2.8,1.3c27.2-3.3,62.1-20.7,89.5-22.5
				C555.7,959.7,542.2,957.9,540.3,958z"/>
			<path fill="#1E1002" d="M588.7,961.1c-5.3-0.7-17-1-22-3.2c-1.8-0.8-0.5,2.9,1.4,3.7c5.4,2.3,12.3,2.4,18,3.2
				c5.9,0.8,12,1.9,18,2.1c2,0,12.5-0.2,9.5-0.3C607.9,966.5,594.3,961.9,588.7,961.1z"/>
			<path fill="#1E1002" d="M450.8,986.6C451.3,986.3,451.2,986.3,450.8,986.6L450.8,986.6z"/>
			<path fill="#1E1002" d="M442.6,988c-10.7,2.8-27.8,7.8-42.9,12h17.1c22.9-5.3,42.6-10,43.4-11.2
				C461.8,986.6,448.2,986.5,442.6,988z"/>
		</g>
	</g>
</g>
<g>
	<g>
		<g>
			<path fill="#1E1002" d="M782.5,154.3c0.1,1,58.6,21.4,47.4,25.8c-9.5-1-19.9,1.7-29.3,3.2c-26.7,4.2-53.9,4.7-80.8,7.3
				c-1,0.1,2.2,4.6,3.9,4.4c32.4-3.2,64.6-5,96.8-9.9c10.8-1.6,21.6-2.8,25.5,10.4c1.1,3.9,2.2,11.6,1.9,15.6
				c-2.5,39.9-7.9,77.7-13.7,117.2c-2.6,17.5-5.6,35-7.4,52.6c-0.2,1.6,4.4,4.8,4.6,3.7c3.7-35.2,10.1-70.1,14.9-105.2
				c2.7-19.4,5.3-38.8,7.1-58.3c0.5-5.8,0.2-11.7,0.9-17.5C858.2,173.2,782,149.5,782.5,154.3z"/>
			<path fill="#1E1002" d="M828,389.4c-8.2,7.5-25.6,9.8-36.1,11.6c-13.1,2.3-28.8,3.8-42,5.7c-11.6,1.7-41.5,3.7-46.4,5.6
				c-13.9,5.3-13.4-13.3-12.8-16.8c1.4-7.1,19.7-129.1,23-160.8c1.2-11.7,11.4-36.3-2-44.2c-1.8-1.1-6.7,2.3-4.8,3.4
				c6.4,3.8,5.8,12.6,5.2,19c-0.6,7.5-28.6,193.1-29.4,199.5c-0.5,3.6-11,0.6-13.2,0.1c-11-2.5-50.6-18.9-60.1-22.6
				c-7.7-3-9.5-6.6-9-14.8c1.1-17.4,4.1-35,6.6-52.3c2.6-18.2,3-34,5.7-52.2c2.5-17,4.7-36.7,7.4-53.6c1.6-10.1,4.4-20.3,8.1-29.9
				c9.9-26.1,40.3-9.3,57.9-2c4.5,1.9,9,3.7,13.6,5.5c3.5,1.4,2.4-4.2,0-5.2c-12.5-4.9-24.7-10.8-37.4-14.9c-3.1-1-6.3-2-9.6-2.6
				c13.4-2.4,23.9-4.3,37.4-6c1.7-0.2,3.8-2.8-0.1-2.3c-17,2-28.7,3.7-45.4,7.4c-0.2,0-0.5,0.1-0.7,0.3c-3.5,0.2-7,1.1-10.2,3
				c-7.7,4.6-10.8,14.6-12.8,22.8c-2.5,10.4-3.9,21.4-5.1,32c-4.1,37.6-10.8,74.9-15.7,112.3c-1.2,9-1.8,18.1-3.2,27
				c-0.8,4.8-1.4,9.8-1.1,14.7c0.5,6.4,3.7,10.9,9.2,14c3.8,2.2,8.2,3.4,12.3,5c5.1,1.9,42.3,16.3,51.6,19
				c22.5,6.6,68.8-5.1,80.5-6.9c15.2-2.4,30.6-3.6,45.8-6.1c11.6-1.9,26.6-4.1,35.6-12.3C832.8,389.9,829.7,387.8,828,389.4z"/>
			<path fill="#1E1002" d="M790.9,202.3c-17.8,0.1-35,6-52.6,8c-0.5,0.1,0.8,2.2,2.3,2c14.7-1.7,29.3-2.3,44.1-4
				c10.7-1.2,21.2-2.7,30.4,4c7,5.2,7.6,16.7,7.5,24.4c-0.1,8.2-0.3,13.1-1,21.2c-0.9,10-1.9,21-2.6,31.1c-1.2,16-3.1,36.7-6.1,52.6
				c-1.4,7.8-0.6,29-12.9,27.6c-0.1,0-1.9,2.4-1.9,2.6c-0.1,0-0.2,0-0.3,0c-20.5,1.3-44.1,12.1-64.3,4
				c-13.9-5.6-14.2-23.9-13.6-36.5c0.6-13.9,1.2-27.6,3-41.4c3.5-27.1,7.2-54.2,10-81.4c0.2-1.8-4.2-5.7-4.5-3.1
				c-3,28.7-4,57.7-8.2,86.2c-2.3,15.7-5.6,31.4-4.8,47.4c0.7,13.4,5.8,26.5,18.4,32.8c8.4,4.2,19.2,3.7,28.3,2.9
				c12.8-1.1,25.2-5,38.1-6c0.1,0.1,0.3,0.2,0.4,0.2c13.6,1.5,17-26.8,18.5-35.4c3-16.7,4.1-33.5,5.5-50.4c1.3-16.1,3-32.2,3.5-48.3
				c0.4-11.6,0.1-24.2-8.2-33.4C812.7,201.8,800.6,202.2,790.9,202.3z"/>
			<path fill="#1E1002" d="M683.3,202.6c-5.8-1.6-11.4-4.6-17.3-6c-3.4-0.8-6.8-1.1-10.3-1c-4.3,0.1-6.1,2.3-8.9,5.3
				c-4.7,4.8-16.6,94.8-20,118.8c-1.3,9.3-3.6,18.4-4.9,27.6c-0.9,6-1.2,12.5,1.2,18.1c1.4,3.2,12.2-77.8,15.1-96.5
				c2.9-18.4,3.8-37.3,7.2-55.6c1.1-5.9,7.1-11.6,12.8-12.1c7.7-0.6,16.1,2.2,23.1,5.1c6,2.5,10.1,7.6,11.1,14.6
				c0.8,6.2-2.6,28.2-3.4,34.2c-1.1,8.7-5.6,60.9-8.9,78.1c-1.7,8.7-8.6,38.3-14.7,41.3c-11.6,5.8-28.5-4-39.3-7.8
				c0,0,0.7,5,2.1,5.5c10.1,3.5,20.1,8.5,30.9,9.3c13.7,1,16.7-10.4,19.1-21.4c3.7-17.3,8.1-34.6,9.5-52.2
				C692.5,248.7,714.7,211.4,683.3,202.6z"/>
			<g>
				<path fill="#1E1002" d="M693,135.3c-1.7,9.1-3.1,21.9-0.1,30.8c0.5,1.4,2.8,4.1,3.6,5.1c5.1,6.3,16.3,8.8,23.5,10.1
					c10,1.8,20.4,1.5,30.5,0.3c7.9-1,36.3-4.5,36.5-22.1c0.1-3.9-11.2-1.8-9.7,2.4c3.5,9.3-27.1,13.4-30.6,13.8
					c-8.5,0.9-17,0.9-25.4-0.3c-5.7-0.8-12.2-3.5-17.3-7.1c-6.7-4.7-7.8-13.7-4.8-32.3c3.1-19.2,2.4-28.9,4.3-41.6
					c5-31.8,6.3-62.5,9.3-94.3h-5.6c-3,31.9-3.6,60.3-8.7,92.6C696.4,105.6,695.4,122.3,693,135.3z"/>
				<path fill="#1E1002" d="M785,152.3C789.9,105.2,794.3,48,799.2,0h-8.5c-5,49-9.1,104.9-14.1,153.8
					C776.3,157.1,784.7,155.4,785,152.3z"/>
			</g>
		</g>
	</g>
	<g>
		<g>
			<g>
				<path fill="#1E1002" d="M713.4,992.9c0.3-3.2-5-5.5-5.5-1.2c-0.3,2.8-0.6,5.5-0.8,8.3h5.6C712.9,997.6,713.2,995.3,713.4,992.9z
					"/>
				<path fill="#1E1002" d="M785.7,977.3c-16-7.1-37.4-8-54.2-3.8c-6,1.5-21.1,4.3-22.5,11.4c-1.2,6,6.2,7.8,10.8,9.3
					c0.2,0.1,22.1,8.7,62.3,2.4c4.3-0.7,17-3,17.3-8.3C799.8,983.4,789.6,979,785.7,977.3z M760.7,991.6c-10.8,0-16.6,0-27.7-1.7
					c-13.4-1.6-15.4-9.1-1.2-12.9c5.8-1.6,5.8-2,11.8-2.6c6.9-0.7,13.8-1,20.7-0.2c6.3,0.8,21.7,3.4,25.7,9.2
					C796.5,992.9,764.4,991.6,760.7,991.6z"/>
				<path fill="#1E1002" d="M790.8,998.7c0,0.4-0.1,0.9-0.1,1.3h8.5c0.2-2.2,0.4-4.4,0.7-6.5C800.2,990.1,791.1,995.7,790.8,998.7z"
					/>
			</g>
		</g>
	</g>
</g>
<g>
	<g>
		<g>
			<path fill="#1E1002" d="M964.7,887.8c-13.7,0.4-27.3,1.2-41,3.2c-28.6,4.3-59.4,9-84.6,24.1c-2.7,1.6,0.2,3.1,2.2,1.9
				c21-12.6,46.1-16.8,69.9-21c13.3-2.3,26.7-4.2,40.1-4.7c16.2-0.6,32.4-1,48.6-1.4v-2.7C984.7,887.4,971.9,887.5,964.7,887.8z"/>
			<path fill="#1E1002" d="M902.5,831.1c-21.9-6.5-43.1-13.5-63.2-24.5c-1.6-0.9-5.1,2.2-3.2,3.2c19.4,10.7,39.7,17.5,60.9,23.8
				c24.4,7.3,49.3,11.9,74.6,14.5c9.5,1,19,1.6,28.5,1.9v-3.4c-8.1-0.4-16.3-1-24.4-1.8C950.9,842.4,926.3,838.2,902.5,831.1z"/>
			<path fill="#1E1002" d="M834.2,807.9c-3.6,5-5.2,11.2-6.8,17.1c-2.3,8.4-4,16.7-4.8,25.4c-0.9,9.8-1.4,20-0.9,29.8
				c0.4,8.7,2.7,21,3.8,29.7c0,0.1,5.2-4.1,5-5.3c-0.9-7.3-4.1-19.7-4.8-27.1c-0.8-8.3-1.3-13.5-0.9-21.8c0.4-8.7,1.2-17.5,3.4-26
				c1.8-6.8,2.9-15.4,7-21.3C836.5,806.2,835.7,805.7,834.2,807.9z"/>
			<path fill="#1E1002" d="M644.2,907.9C644.2,907.5,644.1,907.5,644.2,907.9L644.2,907.9z"/>
			<path fill="#1E1002" d="M836.6,915.7c-2.3-1.3-5.1-5-5.2-7.7c0-0.6-0.3-1.8-1.2-1.2c-0.8,0.6-3.3,2.1-3.2,3c0.1,3,1.2,6.7,3.5,9
				c-5.5,6.8-10.5,11.9-17.7,16.7c-8.9,5.9-18.5,9.8-28.6,13c-21.8,6.8-45.2,8-67.7,4.5c-10.2-1.6-20.6-4.1-29.9-8.5
				c-7.6-3.6-14.3-8.9-20.9-14.1c-27.1-21-26.6-35.7-26.5-40.5c0-3.1-1.9-0.9-2,1.1c-0.1,5.8,0.2,13,3.1,18.1
				c0.2,0.3,3.8,4.4,4.8,5.7c4.6,5.6,9.8,10.9,15.1,15.8c6.4,5.9,13.4,11.2,21,15.5c9.1,5.2,19.2,8,29.3,10.1c23.7,5,48.7,4,72-2.4
				c11.1-3.1,21.6-7.3,31.4-13.5c6.1-3.8,12.6-8.4,18-13.8c0.7-0.4,1.4-1.1,1.7-1.8c0,0,0,0,0,0c1.3-1.4,2.5-2.8,3.6-4.3
				c0.6-0.8,0.4-1.8-0.2-2.7C837.3,916.9,837.2,916.1,836.6,915.7z"/>
			<path fill="#1E1002" d="M809.1,787.6c-10.1-5.7-20.8-9.2-32.1-11.7c-23.4-5.4-48.1-4.6-71.4,1.3c-10.2,2.6-20.3,6.1-29.3,11.7
				c-7.6,4.7-14.3,10.7-20.6,17c-5,5-9.6,10.5-13.9,16.1c-1.1,1.4-5.6,6.2-4.5,8.4c0.1,0.2-1,13.1-1.2,17.5
				c-0.4,8.7-1,18.9,1.7,27.3c0.5,1.5,2.3-2.5,1.9-3.6c-2.1-6.4-1.7-14.1-1.7-20.8c0-4.3,2-14.5,8.3-28.3
				c6.9-14.8,26.4-26.8,33.4-31.1c8.9-5.4,19.2-8.4,29.3-10.8c22.1-5.3,44.7-7.6,66.8-2.5c10.4,2.4,21.1,5.3,30.4,10.5
				c8.3,4.6,18.9,10.7,25.1,18.1c1.8,2.1,3.7,1.4,2-0.6C827,798.5,817.8,792.5,809.1,787.6z"/>
			<path fill="#1E1002" d="M774.3,791.6c-18.2-2.2-36.3-2.3-54.3,1.2c-18.7,3.6-37,11.1-51.6,23.5c-7.7,6.6-13.5,14.5-16.5,24.2
				c-2.9,9.4-3,19.6-3.2,29.4c-0.1,2.2,1.8,3.7,1.8,0.6c0.2-9.6,1.6-21.6,4.5-30.9c2.9-9.4,9.3-16,16.6-22.3
				c14.1-12,32.1-18.5,50.2-22c16.1-3.1,32.6-3.9,48.8-2.3c15,1.6,36.7,4.9,46.9,17.5c1.9,2.4,2.6,1.3,1-0.7
				C808,797,789.8,793.5,774.3,791.6z"/>
			<path fill="#1E1002" d="M817.7,911.2c-11,13-27.7,18.1-43.7,22.1c-17.1,4.3-35.1,5.3-52.7,3.3c-15.8-1.8-34.8-5.6-47.6-15.4
				c-10.9-8.4-24.7-25.8-23.4-40.5c0.2-2.6-0.9-0.3-1.1,1.7c-1.3,15.2,10,29.8,20.8,39.2c13.3,11.6,32.3,16.4,49.4,18.5
				c18.3,2.2,37,0.8,54.9-3.5c17.1-4.1,36.2-8.5,47.9-22.4C824.3,912,819.2,909.5,817.7,911.2z"/>
		</g>
	</g>
	<g>
		<g>
			<path fill="#1E1002" d="M81.4,888.3c11.9,0.4,42.3-0.6,43.7-0.7c1-0.1,4.3-3.9,4.6-4.8c3.1-11,3.2-33.3-4.9-33.6
				c-41.5-1.8-83.2-0.3-124.7-2.6v3.4c41.1,1.5,82.4-1.8,123.2,2.7c6.9,0.8,9.4,30.9-0.1,32.1c-10.9,1.4-77.9,1.8-123.1,2.3v2.7
				c9.5-0.2,19-0.4,28.5-0.6C46.1,888.9,63.7,888.5,81.4,888.3z"/>
		</g>
	</g>
</g>
<g>
	<g>
		<g>
			<path fill="#1E1002" d="M993.4,439.1c-0.1-0.2-0.4-0.4-0.8-0.5c-23.3-4.3-47.3-5.8-70.9-7.9c-22.3-2-44.8-4.4-67.2-5.3
				c-0.2,0-0.5,0-0.7,0.1c-0.1-0.2-0.2-0.3-0.3-0.3c-4.6-0.2-9.3-0.1-13.9,0.3c-4.2,0.4-10.4,0.9-13.5,4.2
				c-2.8,2.9-3.8,7.8-4.8,11.5c-1.5,5.3-3.2,10.4-5,15.6c-1.7,5.2-2.7,10.6-3.6,15.9c-0.9,5.4-2,10.6-1.2,16
				c0.4,2.7,0.2,5.1,2.3,6.9c2.9,2.5,6.9,3.7,10.5,4.6c9.4,2.2,19.4,1.8,29,1.9c7.4,0.1,14.6,1,21.9,1.7c19.4,1.9,38.8,3.1,58.2,4.6
				c7.4,0.6,14.9,1.1,22.3,2c0,0,0-4.5-0.8-4.5c-24.8-2.7-49.7-3.9-74.5-6c-10.5-0.9-20.8-3.1-31.3-2.2
				c-44.5,3.5-35.3-22.3-33.6-30.1c1.7-7.4,4.7-14.5,6.7-21.9c0.8-3.1,1.8-6.2,3.2-9c1.6-3.3,4.4-4.4,7.8-5.3
				c6.8-1.9,14.2-1.7,21.2-1.5c0,0,0-0.1,0-0.1c21.7,0.9,43.4,3.2,65.1,5.2c23.6,2.1,47.7,3.5,71.1,7.9c0.3,0.1,0.7,0,1-0.1
				c3.6,1.4,4.3,6.7,4.6,10.2c0.6,7.3-0.4,14.8-1.5,22c-1,6.9-2.4,13.8-3.9,20.6c-1.1,4.9-1.4,8.8-4.5,12.5c-3.1,0.4-6.1,0-9.2-0.3
				c-5.6-0.6-11.2-1.3-16.8-1.5c-1.3-0.1-3.9,3.1-3.2,3.1c7.6,0.3,15.1,1.7,22.6,2c5.5,0.3,8.3-1.9,11.6-6.2c1.4-1.8,1.5-4.1,2-6.2
				c0.9-3.9,1.7-7.7,2.5-11.6c2.1-10.3,4.1-20.8,4.3-31.4C1000,450.6,1000.2,439.8,993.4,439.1z"/>
			<path fill="#1E1002" d="M992.2,507c0,6.3-3.5,1.6-2.3,7.7c1,4.7,5.1,21.9,10.1,42.6v-17.7C995.9,521.3,992.2,505.3,992.2,507z"/>
			<path fill="#1E1002" d="M984.8,693.5c-11-0.6-68.7-9.1-87-9.2c-11.1-0.1-31.5,0.7-35.2-13c-0.4-1.7-45.3-154.4-49.3-172
				c-0.7-3-2.9-0.9-2.4,1.3c4.1,17.9,49.3,174.4,49.6,175.2c3.9,14.4,20.1,12.6,32.6,13c7.4,0.2,85.9,9.1,96.9,9.6
				c3.3,0.1,6.7,0.1,10,0v-4.6C994.9,693.9,989.8,693.7,984.8,693.5z"/>
			<path fill="#1E1002" d="M988.9,813c-16.7-0.2-33.6-1.1-50.3-2.7c-38.7-3.8-45.2-42.1-49.2-58.7c-4.5-18.9-15.2-48-23.1-65.7
				c-1.2-2.7-1.3,5.2-0.8,6.3c8.2,18.3,12.2,36.1,16.9,55.6c3.9,16.3,18.4,53.1,19,53.8c8.9,10.2,23,11.6,35.6,13.1
				c18,2,36.3,2.7,54.5,3c2.8,0,5.6,0,8.5,0v-4.8C996.4,812.9,992.8,813,988.9,813z"/>
			<path fill="#1E1002" d="M962.4,685c-11-1.2-21.9-2.9-32.9-4.2c-11.2-1.3-22.5-2.6-33.6-4.5c-6.3-1.1-11.8-1-15.9-6.1
				c-4.2-5.3-7.8-13.4-10.1-19.7c-12.4-33.5-15.3-69.1-24-103.6c-0.2-0.8,1.3-2,1.1-2.8c0,0,0,0,0,0c0.3-0.3-0.8-3.4-0.8-4.1
				c-1-8.8,16-10.6,22.1-11.6c14-2.3,26.9-1.6,41-0.8c13.5,0.7,28.9,1.8,42.4,3.5c8.8,1.1,16.8,3,25.3,5.9c3.4,1.2,8,4.4,9.4,8.1
				c1,2.7,4.3,1.6,3.2-1.1c-4-10.3-19.4-12.3-29.2-13.7c-10.9-1.6-21.8-2.9-32.8-3.9c-14.8-1.4-29.6-2.3-44.5-1.8
				c-10.8,0.3-23.3,0.8-33,6.3c-4.3,2.4-6.7,6.6-6.2,11.5c0.1,1.1,0.9,1.9,1.7,2.1c-0.9,0.8-1.8,2.1-1.6,2.9
				c9.2,34.3,12.6,70,24.2,103.8c3.2,9.2,8.1,24.5,18.7,27.7c9.7,2.9,20.5,3.4,30.5,4.7c11.1,1.3,22.1,2.5,33.1,4.2
				c9.8,1.5,35.4,3.1,49.6,1.7v-3.7C987.6,687.5,974.8,686.4,962.4,685z"/>
			<path fill="#1E1002" d="M993,553.1c-0.1-1.8-1.9,0.2-1.8,1.4c1.5,11.6,4.3,22.9,6.9,33.5c0.6,2.7,1.3,5.4,1.9,8.1V588
				c-1.7-7.1-3.4-14.2-4.9-21.3C994.1,562.2,993.1,557.7,993,553.1z"/>
			<path fill="#1E1002" d="M920.6,452.2c-14.3,0.1-28.4-0.6-42.7-1.1c-6.7-0.2-13.4-0.6-20.1-1.4c-5.6-0.7-15.7-1-21.5-2.9
				c-0.5-3-1.8-5.9-3.5-8.8c-1.6-2.6-4.3,0-2.9,2.3c2,3.4,5.3,4.9,4.9,9c-0.4,3.9-4.4,9.7-5.9,13.2c-2.7,6.3-4.4,12.5-4.3,19.4
				c0,2.7,1.6,4.8,1.6,1.8c-0.1-9.1,6.3-18.5,9.3-26.8c0.5-1.5,0.9-2.9,1-4.3c10.4,1.6,63.8,2.4,77.1,2.4c12.9,0,26,0.2,38.9-0.6
				c9.4-0.6,21-1.9,29.7,2.5c1,0.5,3.7-2.8,3.7-2.7C977.7,450.1,933.2,452.1,920.6,452.2z"/>
		</g>
	</g>
	<g>
		<g>
			<path fill="#1E1002" d="M24.6,646.2c0.4,1.1-12.8-52.7-15.8-66.6c-2.2-10.1-5.6-25.7-8.7-39.9v17.7c9.6,39.7,22.5,92.3,22.9,93.1
				C24,653.1,25,647.3,24.6,646.2z"/>
			<path fill="#1E1002" d="M29.1,688c0.7-0.4,1.9-1.5,3.9-3.7c3.2-3.5,5.7-13.4,6.9-18c0.5-1.9,2.4-8.4,3.4-11.8
				c2.1-8.5-0.1-10.7-0.1-9.4c0.2,3.4-6.3,20.6-7.2,23.8c-0.6,2-1.7,4.6-3,7.3c0.1-7.7-2.8-16.2-5.2-23.3c-1-2.9-2.8-1.5-2,0.7
				c2.4,7.1,5.2,14.6,4.9,22.2c-0.5,9.4-9.4,13.9-17.3,16c-4.3,1.2-8.8,1.7-13.3,2v4.6c7.6-0.4,15.2-1.7,22.1-5
				C25.1,691.8,27.4,690,29.1,688z"/>
			<path fill="#1E1002" d="M42.8,655.9c1.4-4.9,1.2-4.2,0.4-1.5C43.1,654.9,43,655.4,42.8,655.9z"/>
			<path fill="#1E1002" d="M57.3,801.5c0-1.1-0.9-6.1-0.8-3.2c0.2,7.6-14.3,14.1-26.2,13.7c-12.1-0.4-21.1,0.4-30.3,0.7v4.8
				c11.6-0.1,23.1-0.6,34.7-1.1C41.1,816.3,57.3,814.9,57.3,801.5z"/>
			<path fill="#1E1002" d="M42.7,737.1c-2.1-10.4-9-44-10.5-44.8c-2.4-1.2,15.5,92.6,20.6,110.4c0.8,2.9,4.3-8.4,3.5-11.1
				C50.9,772.8,46.5,756.3,42.7,737.1z"/>
			<path fill="#1E1002" d="M51.9,648.2c2.1,25.2,17,58.1,17.8,83.5c0.1,2.4,2.2-10,2.1-11.8c-0.8-25.4-16.6-49-18.7-74.3
				C52.9,643.2,51.7,646.4,51.9,648.2z"/>
			<path fill="#1E1002" d="M67.5,745.5c-2.3,4.9-2.6,11.3-3.5,16.5c-0.9,5.5-2.2,11.1-2.5,16.6c-0.1,1.8-0.3,11.5-0.1,8.8
				c0.3-5.2,5.1-17.6,6-22.8c0.8-4.9,1.5-15.7,3.7-20.3C71.8,742.6,68.4,743.7,67.5,745.5z"/>
			<path fill="#1E1002" d="M12.8,684.7c5.7-7.1,3.3-19.5,2.3-27.6c-3.1-23.4-9.4-46.2-15-69v8.1c3.2,13.7,6.2,27.9,9,41.4
				c2.8,13.1,4.6,26,3.8,39.5c-0.1,1.8-5.6,7.5-7.5,7.9c-1.8,0.4-3.5,0.7-5.3,0.9v3.7c4.3-0.4,7.5-1.1,9-2.1
				C10.3,686.5,11.8,685.9,12.8,684.7z"/>
			<path fill="#1E1002" d="M48.5,636.1C48.6,636.6,48.7,636.5,48.5,636.1L48.5,636.1z"/>
			<path fill="#1E1002" d="M33.2,569.3c-6.3-28.6-12.8-57.1-18.4-85.8C12.6,472.4,9.9,461.2,5,451c-0.9-1.9-2.7-3.2-1.3-0.4
				c9.2,19.2,10,41.8,14.6,62.4c2.6,11.8,5.2,23.6,7.8,35.4c6.1,27.5,18,94.8,20.1,96.4c2,1.6,2.5-11,1.3-16.2
				C44,613.4,36.6,584.3,33.2,569.3z"/>
		</g>
	</g>
</g>
<g>
	<g>
		<g>
			<path fill="#1E1002" d="M983.9,221.7c-40.4,27.3-70.3-0.5-75-7.2c-18.5-26.4-32.3-57.1-44.3-87c-7.5-18.7-13-38.3-14-58.5
				c-0.5-10.5,0.2-21.2,4.6-30.9c1.5-3.2,3.3-6.2,5.3-9c-3.3,9.5-3.1,19.6-1.5,29.6c1.4,8.3,3.9,16,7.4,23c7.6,27,17.1,53.3,28.4,79
				c5.4,12.1,11.7,23.8,20.2,34.1c7.2,8.6,16.7,17.6,27.8,20.6c18.2,5,35.9-11.5,47.6-23.3c3.3-3.4,6.5-6.9,9.7-10.4v-8.4
				c-9.4,12.2-19.2,24.7-31.5,33.2c-8,5.6-15.8,8.8-25.7,6.9c-13.7-2.6-26.1-18.4-33.7-29.2c-8.7-12.5-14.1-26.8-20-40.7
				c-6-14.2-11-28.8-15.6-43.4c-1.2-3.8-2.4-7.7-3.5-11.6c18.2,29,54,44.9,88.4,47.8c13.6,1.1,27.8,0.4,41.5-2.2v-2.9
				c-3.9,0.8-7.8,1.6-11.8,2.1c-25.5,3.3-51.2,1.3-74.7-9.7c-23.3-10.9-41.3-30.6-48.2-55.6c-6-21.5-2.4-42.1,13.4-58.1
				c3.6-3.7,7.6-6.9,11.9-9.8h-6.7c-0.5,0.4-1.1,0.7-1.6,1.1c-3.9,2.9-24.7,17-31.1,28.3c-7.2,12.7-5.4,22-5.6,31.7
				c-0.6,21,4.8,42,12.1,61.5c6.2,16.8,14.1,33.1,22.2,49.1c7.5,14.7,15.2,29.5,24.1,43.4c-0.3-0.1-0.5,0.2-0.3,1.2
				c4.2,29.7-0.5,58,3.1,87.7c-1,0,0,2.4,0.6,3.6c5.9,11.5,16,17.8,28.8,18.4c11.4,0.5,27.3-3,32.5-14.2c0.2-0.4,0.1-0.8-0.1-1.3
				c5.8-14.9,10.1-30.5,14.2-46c3.6-13.5,7-27.2,9.6-41c0.1-0.6,0.1-1.1-0.1-1.4c2.7-2.7,5.3-5.4,7.8-8.1v-9
				C991.2,214.3,984,221.6,983.9,221.7z M978.5,264.8c-3.1,15-8,29.6-13.5,43.9c-0.3,0.1-0.6,0.3-0.8,0.6
				c-4.4,9.5-17.2,12.8-26.9,13.2c-11.6,0.4-20.6-4.1-26-14.7c-0.2-0.4-0.6-0.7-1-1c-3.4-29.3-0.5-59.1-4.6-88.4
				c0-0.2-0.1-0.5-0.3-0.8c0.5,0.3,1,0.5,1.6,0.4c7.9,12.6,23.6,19.7,38.6,19C994.1,234.4,985.3,232,978.5,264.8z"/>
			<path fill="#1E1002" d="M939,104.6c-19.3-5.3-35.3-18.3-44.5-36.3c-4.9-9.7-4.9-20-1.1-30.1c4.3-11.6,10.7-18.5,21.6-23.7
				c21.2-10.1,48-15.5,70.8-11c4.9,1,9.6,2.4,14.2,4.1V3.1c-1.4-0.5-2.8-1.1-4.2-1.5c-1.7-0.6-3.5-1.1-5.3-1.6h-59.8
				c-2,0.5-3.9,1-5.8,1.6C904.5,7.8,886.3,22,885,44.7c-1,18.4,10.7,35.5,24,47.1c11.1,9.6,23.9,14.9,38,18.1
				c17.2,4,35.4,5.5,52.9,2.5v-4.7C980,112.4,958.2,109.9,939,104.6z"/>
		</g>
	</g>
	<g>
		<g>
			<path fill="#1E1002" d="M942.3,981.7c19.2-2.8,38.9-2.5,57.7,1.9v-1c-15-3.8-30.8-5.2-46.9-4.2c-24.3,1.5-49,7.5-69.2,21.6h6.7
				C905.8,989.8,924.6,984.2,942.3,981.7z"/>
			<path fill="#1E1002" d="M930.8,1000h59.8C971.4,994.7,950.1,995.2,930.8,1000z"/>
		</g>
	</g>
	<g>
		<g>
			<path fill="#1E1002" d="M69.9,26.2c1,1,4.7,1.1,4.7,1.1C64.6,16.5,53.5,7.4,41.4,0h-2.5C50.4,7.3,60.7,16.2,69.9,26.2z"/>
			<path fill="#1E1002" d="M61.1,139.9c19.7-29.5,36.3-68.7,17.2-102.5c-1.4-2.6-5.6-1.5-4,1.3c0.8,1.3,10,44-19.7,66.7
				C38.1,118,19.9,126.8,0,131.1v2.9c8.9-1.7,17.7-4.1,25.9-7.4c20.7-8.2,41.9-21.8,50.8-43c3.1-7.3,4.7-15.1,5-23
				c3.7,27.5-10.8,56.1-26.2,78.7c-8.8,12.9-19.2,24.7-29.2,36.7C19.7,183.9,9,195.5,0,205v9c10.4-11.2,20.2-23,30-34.7
				C40.8,166.5,51.8,153.8,61.1,139.9z"/>
			<path fill="#1E1002" d="M50.9,118.9c1-1.1-13,5-13.4,5.5c-11.5,13.4-16.9,23-28,36.7c-3.2,3.9-6.3,8-9.5,12.1v8.4
				c10.4-11.7,20-24.3,29.6-36.6C35.1,138.1,45.1,125.7,50.9,118.9z"/>
			<path fill="#1E1002" d="M37.4,91.2c8.1-9.3,14.1-21.9,10.2-34.3c-0.9-2.8-3-2.3-2.1,0.6c3.2,10.2-2.9,20.6-9.1,28.4
				c-6.1,7.5-13.8,13.6-22.6,17.4c-4.4,1.9-9,3.4-13.7,4.5v4.7c0.3-0.1,0.6-0.1,1-0.2C15.5,109.6,27.7,102.3,37.4,91.2z"/>
			<path fill="#1E1002" d="M45.6,53.4c1.1,3.2,2.4,0.2,1.7-1.8C39.4,28.6,22.2,11.9,0,3.1v4.5C21,15.6,38.1,31.4,45.6,53.4z"/>
		</g>
	</g>
	<g>
		<g>
			<path fill="#1E1002" d="M0,983.6c5.7,1.3,11.3,3,16.8,5.2c7.8,3,15.1,6.8,22.1,11.2h2.5c-12.9-7.9-26.8-13.7-41.4-17.4V983.6z"/>
		</g>
	</g>
</g>
<g>
	<g>
		<path fill="#1E1002" d="M84.1,621.1c-0.2,4.9,0.4,9.9,0,14.8c-2,25.9,63.5,42.4,62.9,38.4c-0.1-0.9-50.4-15.4-41.2-19.6
			c8.1,0.5,16.7-2.4,24.6-4c22.3-4.7,45.3-6.4,67.9-9.9c0.8-0.1-2.1-3.8-3.5-3.6c-27.2,4.1-54.3,7.2-81.3,12.8
			c-9.1,1.9-18.1,3.4-22-7.6c-1.1-3.2-2.4-9.7-2.3-13.1c0.3-33.8,3.1-66,6.2-99.6c1.4-14.9,3.1-29.8,3.9-44.8c0.1-1.4-4-3.8-4-2.9
			c-1.5,29.9-5.3,59.7-7.8,89.5C86.1,588,84.8,604.5,84.1,621.1z"/>
		<path fill="#1E1002" d="M97.8,477.9c6.6-6.7,21.2-9.4,29.9-11.5c10.9-2.6,24.2-4.5,35.2-6.7c9.7-2,34.9-5,38.9-6.8
			c11.5-5.1,12,10.6,11.6,13.6c-0.8,6-10.7,109.9-12,136.8c-0.5,9.9-8,31.2,3.7,37.2c1.6,0.8,5.6-2.3,3.9-3.1
			c-5.5-2.9-5.4-10.4-5.3-15.8c0.2-6.3,15.3-164.4,15.6-169.8c0.2-3.1,9.2-1,11.1-0.7c9.4,1.6,43.6,13.6,51.8,16.4
			c6.6,2.2,8.3,5.1,8.3,12.1c-0.1,14.8-1.9,29.8-3.2,44.4c-1.3,15.4-1,28.9-2.4,44.3c-1.3,14.5-2.2,31.2-3.8,45.6
			c-0.9,8.6-2.8,17.3-5.4,25.6c-7.1,22.5-33.6,9.7-48.8,4.3c-3.9-1.4-7.8-2.7-11.7-4c-3-1-1.9,3.7,0.2,4.4
			c10.8,3.6,21.3,8,32.3,10.9c2.7,0.7,5.4,1.4,8.2,1.7c-11.2,2.6-19.9,4.8-31.3,6.8c-1.4,0.3-3.1,2.5,0.2,1.9
			c14.2-2.5,24-4.5,38-8.3c0.2,0,0.4-0.1,0.6-0.3c3-0.3,5.8-1.3,8.5-3c6.3-4.3,8.5-12.8,9.7-19.8c1.6-8.9,2.3-18.2,2.8-27.2
			c1.7-31.9,5.7-63.7,8.1-95.6c0.6-7.6,0.7-15.4,1.5-23c0.4-4.1,0.8-8.3,0.2-12.5c-0.7-5.3-3.7-9-8.4-11.4
			c-3.3-1.6-7.1-2.5-10.6-3.7c-4.4-1.4-36.4-11.8-44.5-13.7c-19.3-4.5-57.9,7.4-67.7,9.5c-12.7,2.7-25.7,4.5-38.4,7.3
			c-9.7,2.1-22.3,4.7-29.5,12.1C93.7,477.7,96.4,479.3,97.8,477.9z"/>
		<path fill="#1E1002" d="M194.8,508.4c-1.2-11.3-6.1-22.1-17-26.9c-7.3-3.2-16.4-2.3-24-1.2c-10.8,1.5-21.1,5.4-31.9,6.8
			c-0.1-0.1-0.2-0.1-0.3-0.1c-11.5-0.7-13.1,23.4-14,30.7c-1.8,14.2-1.9,28.5-2.3,42.8c-0.4,13.6-1,27.3-0.7,40.9
			c0.2,9.8,1.1,20.5,8.4,27.8c6.4,6.3,16.5,5.4,24.7,4.9c15-0.9,29.3-6.7,44-9.2c0.5-0.1-0.7-1.8-2-1.6c-12.4,2.1-24.7,3.3-37,5.4
			c-9,1.5-17.8,3.3-25.9-2c-6.1-4-7.2-13.8-7.5-20.3c-0.3-6.9-0.3-11-0.1-17.9c0.3-8.5,0.6-17.8,0.8-26.4c0.3-13.6,1-31.2,2.7-44.7
			c0.9-6.7-0.8-24.5,9.6-23.9c0.1,0,1.5-2.1,1.5-2.3c0.1,0,0.2,0,0.3,0c17.3-2.1,36.7-12.2,54.1-6.3c12,4.1,13.1,19.5,13.2,30.2
			c0.1,11.7,0.2,23.4-0.6,35.1c-1.7,23-3.6,46.1-4.7,69.2c-0.1,1.5,3.8,4.7,3.9,2.4c1.2-24.3,0.7-48.9,3-73.2
			C194.2,535.2,196.3,521.8,194.8,508.4z"/>
		<path fill="#1E1002" d="M228.5,629c5,1.1,9.9,3.4,14.8,4.2c2.9,0.5,5.8,0.6,8.7,0.4c3.6-0.3,5.1-2.2,7.3-4.9
			c3.7-4.3,9.7-80.8,11.4-101.3c0.7-7.9,2.2-15.7,2.9-23.5c0.5-5.1,0.4-10.6-1.9-15.3c-1.3-2.6-6.7,66.3-8.3,82.2
			c-1.6,15.7-1.5,31.7-3.5,47.3c-0.7,5-5.5,10.2-10.2,10.8c-6.5,0.9-13.7-1.1-19.7-3.3c-5.1-1.8-8.9-6-10-11.9c-1-5.2,0.9-24,1.3-29
			c0.5-7.4,2-51.7,4-66.3c1-7.4,5.5-32.7,10.5-35.5c9.5-5.4,24.2,2.1,33.6,4.8c0,0-0.9-4.2-2-4.5c-8.7-2.5-17.4-6.2-26.6-6.4
			c-11.6-0.2-13.7,9.6-15.1,19c-2.3,14.8-5.3,29.6-5.6,44.6C218.7,590.4,201.6,623,228.5,629z"/>
		<g>
			<path fill="#1E1002" d="M218.9,656.2c-4.6-5.1-14.2-6.7-20.3-7.5c-8.5-1-17.3-0.3-25.8,1.2c-6.6,1.2-30.4,5.5-29.8,20.3
				c0.1,3.3,9.6,1,8.1-2.5c-3.4-7.7,22.3-12.6,25.2-13c7.1-1.2,14.3-1.6,21.5-0.9c4.8,0.4,10.4,2.4,14.9,5.2
				c5.9,3.7,7.2,11.2,5.6,27.1c-1.7,16.4-0.7,24.5-1.7,35.3c-2.9,29.1-2.4,56.9-3.8,86.1c-0.1,2.8,4.5,4.4,4.7,0.7
				c1.5-30,0.4-55.7,3.4-85.6c1.1-11.1,1.3-25.3,2.7-36.3c1-7.7,1.6-18.6-1.3-26C221.7,659.1,219.6,657,218.9,656.2z"/>
			<path fill="#1E1002" d="M207.3,806.7c-0.2,0-19-6.3-52.8,0.8c-3.6,0.8-14.2,3.3-14.3,7.8c0,4.1,8.8,7.4,12.1,8.6
				c13.8,5.3,32,5,46,0.7c5-1.5,17.6-4.6,18.4-10.7C217.5,808.9,211.2,807.7,207.3,806.7z M197.9,821.7c-4.8,1.6-4.8,2-9.8,2.7
				c-5.8,0.9-11.6,1.5-17.5,1.1c-5.3-0.4-18.5-1.9-22.1-6.6c-6-7.7,21.2-8.1,24.3-8.3c9.2-0.5,14-0.8,23.4,0.1
				C207.7,811.6,209.8,817.8,197.9,821.7z"/>
			<path fill="#1E1002" d="M139.7,810.9c-0.1,2.8,7.2-2.2,7.4-4.8c2-41.9,2.9-89.8,4.9-131.7c0.1-2.8-6.9-0.9-7.1,1.6
				C142.9,718,141.8,769,139.7,810.9z"/>
		</g>
	</g>
</g>
<g>
	<g>
		<path fill="#1E1002" d="M518.7,416.2c-2.3-10.5-4.9-21-8.8-31c-2-5-7-16.2-6.8-16.6c10.7-20.2,23.9-39.5,30-61.8
			c5.9-21.7,4.2-62.6,1-66.3c-4.8-4.7-37.7-1.5-55.4,3.1c-8.1,2.1-15.7,5.3-23.4,8.4c-8.4,3.4-16.7,7-24.4,11.8
			c-0.6,0.4,2.8,0,3.5-0.5c7.2-4.6,15.1-8,23.1-11.2c7.1-2.8,14.1-5.8,21.4-7.8c16.7-4.5,43.4-1.9,50.3,0.5c4.1,1.7,3.3,39.7-1.9,61
			c-5.5,22.6-25.8,67.1-49.2,60.9c-9.3-2.5-19.3,0.5-28.9,1.4c-16.8,1.6-33.1,4.6-49.7,7.7c-16.4,3-59.6,10.5-62.2,29.9
			c-1,7.7-2.6,15.3-1.5,22.8c3.1,20.8,14.6,62.5,15.2,62.4c-9.6,16.6-39.9,54.4-30.9,65.3c0.6,0.7,2.8,0.3,2.4-1.1
			c-1.3-4.5,0.5-9.7,2.4-13.5c1.1-1.5,2.1-3,3.1-4.6c5.9-7.2,13.6-11.2,21.1-12.2c19.7-2.7,33.1-1.5,42.6,10.2
			c6.4,8,11,15.8,10,25.1c-1,9.1-3.5,18.2-10,24.5c-6.8,6.5-14.6,13.3-24.1,13.7c-9.4,0.3-18.5-3.9-26-9.3
			c-8.1-5.8-16.7-13.9-18.9-23.8c-0.3-1.3-2.2,0-1.9,1.1c3.7,16.5,19.9,30.4,36.1,33.8c35.4,7.4,51-24.6,51.6-25.5
			c2.2-3.5,4.2-7.1,6.2-10.7c6.5-11.7,12.8-23.6,18.9-35.5c11.5-22.1,23.2-44.2,33.5-66.9c0.1-0.1,0.3-0.3,0.3-0.6
			c0-0.1,0-0.2,0.1-0.3c0.1-0.3,0.3-0.6,0.4-0.9c0.1-0.3,0.1-0.6,0-0.9c4.4-20.6-4.2-41-23.7-50.4c-8.1-3.9-16.3-4.6-25-3.2
			c-9.7,1.5-20.1,5-25.8,13.5c-0.1,0.2-0.2,0.3-0.2,0.5c-12.3,20.5-24.3,41.2-36.4,61.8c-1.3,2.2-1.9,1.6-3.2,3.8
			c-2.5-12.1-6.2-21.3-9.1-33.3c-2.2-9.2-3.5-20.8-4.6-30.2c-1.2-9.6,1.1-18,7.9-25.3c2-2.1,2.5-2.6,5-4.1
			c-6.3,9.8-4.2,22.4-2.2,33.2c1.2,6.5,2.5,12.9,4.3,19.2c2.3,8.2,4.8,16.5,5,25.1c0,1.7,1-3.1,1-4.6c-0.3-13.9-3.3-24.4-6-38
			c-2.2-11.2-5.4-37.1,16.3-42.2c9.5-2.2,92.4-15.7,111.7-14.5c4.4,0.3,9.8,0.4,13.7,2.8c4.4,2.7,7,8.3,9,12.8
			c6.6,14.9,9.4,31.7,12.5,47.5c1.8,9.3,1.4,19,3.5,28.2c3.2,14.4-12.3,25.7-12.9,25.8c-10,3.1-20.2,5.5-30.5,7.7
			c-6.9,1.5-13.1,2.8-20.3,2.3c-2.4-0.2-3.5,3.5-0.8,3.7c7.5,0.6,14-0.7,21.3-2.3c10.6-2.2,21.2-4.7,31.6-8
			c0.7-0.2,20.1-10.4,15.2-30.1C521.7,446,521.8,430.6,518.7,416.2z M395.6,422.7c0.4-0.6,0.8-1.3,1.2-1.9c0.1-0.1,0.2-0.2,0.3-0.3
			c5.1-7.6,14.3-10.6,22.9-12.2c8.1-1.5,15.5-1,23,2.4c18.9,8.5,25.6,29.3,20.8,48.4c-10,22.4-21.6,44.1-32.9,65.8
			c-6,11.6-12.1,23.2-18.4,34.7c-1.3,2.3-2.6,4.7-3.9,7c0.3-1.2,0.6-2.4,0.8-3.6c1.5-8.7-2-17.5-6.6-24.8
			c-8.9-13.9-26.2-24.4-43-21.2c-10.1,2-20,7.6-27.8,14.1c-0.1,0.1-0.2,0.2-0.3,0.2c1.3-2.3,2.7-4.6,4-6.8
			c7.1-11.9,14.2-23.8,21.2-35.7C369.6,466.7,382.5,444.6,395.6,422.7z"/>
		<path fill="#1E1002" d="M340.7,398c8.6-23.4,19.9-45.7,33.5-66.6c7.2-11,15.1-21.5,23.4-31.6c8.9-11,16.8-23.4,27.9-32.3
			c2-1.6,0.7-2.7-1-1.3c-10.7,8.5-19.7,18.8-28.4,29.2c-8.3,10-16.1,20.4-23.4,31.2c-14.7,21.8-34,51.7-35.5,79
			C337.1,408,340,400.1,340.7,398z"/>
		<path fill="#1E1002" d="M560.1,297c3.8,13.8,9,28,10.5,42.3c1.7,16,0.2,31.5-0.8,47.6c-1.1,16.5-6.5,35.7-12.8,51
			c-6.7,16.2-17.6,27.3-30.2,39.2c-1.7,1.5,2,4.4,3.5,3c12.3-11.5,23.9-24.6,31.1-39.9c7.1-15.2,10.5-32.1,12-48.7
			c1.5-16.8,0.9-33.9-1-50.6c-1.7-15.1-6.3-29.1-10.3-43.7C561.3,295.3,559.4,294.5,560.1,297z"/>
		<path fill="#1E1002" d="M532.6,245c6.5,15.4,16.6,33.7,23.1,49.1c0.5,1.2,4.3-0.4,3.7-1.7c-6.5-15.4-19.2-34.7-25.7-50.1
			C533.2,241,532,243.7,532.6,245z"/>
		<path fill="#1E1002" d="M524.3,275.9c0,0.4,3.2-1.1,3.3-2.2c0.4-5.7-0.2-12.1-5.3-15.5c-4.2-2.9-10.1-2.4-14.9-1.8
			c-6.5,0.8-12.9,2.7-19.2,4.4c-8,2.2-16,3.2-24.2,4.4c-11.2,1.6-22,4.2-31.6,10.3c-9.3,6-16.5,15.7-23.3,24.3
			c-7.5,9.6-14.3,19.7-20.7,30.1c-6.3,10.3-13.2,20.3-19.7,30.5c-2.6,4.1-5,8.4-7.1,12.8c-1.8,3.7-2.1,9.4-5.2,12.2
			c-2.1,1.9,0.3,1.1,1.5,0.1c2.7-2.4,3.9-5.4,5-8.8c2-6,5-11.4,8.3-16.8c6.3-10.3,13.4-20.1,19.7-30.5c6.7-11.1,14-21.8,22-32
			c3.9-5,8.1-9.8,12.4-14.5c6-6.4,13.4-10.1,21.8-12.4c10.4-2.9,21.2-3.3,31.7-5.5c6.2-1.3,12.3-3.3,18.5-4.8
			c5.9-1.4,12.2-2.6,18.2-1.2c6.2,1.5,8.6,7,8.9,12.9C524.5,273.3,524.4,274.6,524.3,275.9z"/>
		<path fill="#1E1002" d="M564,374.2c0.8-16.4-0.2-32.8-1.9-49.1c-0.8-7.8-1.8-14.8-5.4-21.9c-4.1-7.8-12.3-13.2-16.8-20.8
			c-0.6-1-1.9-0.4-1.4,0.5c4.1,6.8,9,12.9,13.1,19.7c4.4,7.2,5.7,14.4,6.6,22.7c1.6,14.9,2.5,29.9,2.2,45
			c-0.6,29.6-33.4,85-33.3,85.4c0.3,2.8,3.2,0.7,4.6-0.1C533.5,454.5,562.6,403.4,564,374.2z"/>
		<path fill="#1E1002" d="M514.9,469.1c1-0.4,0.5-5.3-0.9-4.7c-15,6.3-32.9,8.7-48.3,13.9c-1.1,0.4-2.9,3.8-1.5,3.3
			C479.6,476.4,499.8,475.4,514.9,469.1z"/>
	</g>
</g>
<g>
	<g>
		<path fill="#1E1002" d="M370.2,773.8c-7.3,7.9-14.5,16-20.5,24.9c-3,4.4-9.3,15-9.8,15c-22.7,2.7-46.1,2.9-67.9,10.6
			c-21.2,7.5-53.8,32.2-55,37c-1.1,6.6,20.3,31.8,34.2,43.8c6.3,5.4,13.3,9.9,20.3,14.4c7.5,5,15.3,9.8,23.6,13.3
			c0.6,0.3-1.6-2.3-2.4-2.6c-7.9-3.3-15.2-7.9-22.3-12.6c-6.4-4.2-12.8-8.2-18.6-13.2c-13.2-11.1-26.3-34.6-28.3-41.6
			c-1-4.3,30.7-25.4,51.2-33.2c21.7-8.3,69.9-17.1,78.1,5.8c3.3,9.1,11.4,15.5,17.6,22.9c10.8,12.9,22.7,24.6,34.6,36.4
			c11.8,11.7,42.6,42.9,60,34c6.9-3.5,14.1-6.6,19.6-11.8c15.3-14.4,43.1-47.6,42.6-48.1c19.1-1.6,67.5,1.8,71.3-11.9
			c0.3-0.9-1.4-2.4-2.2-1.4c-2.9,3.6-8.3,5.2-12.5,5.7c-1.8,0-3.7,0-5.5,0.1c-9.3-0.8-16.9-4.8-22.1-10.4
			c-13.4-14.7-20.1-26.3-15.9-40.8c2.9-9.8,6.7-18,14.9-22.5c8-4.4,17-7.5,25.8-5.7c9.3,1.9,19.3,4.4,24.9,12
			c5.6,7.5,7.4,17.4,7.2,26.6c-0.2,10-1.9,21.7-8.8,29.1c-0.9,1,1.2,1.8,2,1c11.4-12.4,13.6-33.6,7.2-48.9
			c-14.1-33.3-49.2-27.9-50.4-27.8c-4.1,0.2-8.2,0.6-12.3,1c-13.4,1.3-26.7,3-40,4.7c-24.7,3.1-49.6,6.1-74,10.7
			c-0.2,0-0.4,0-0.7,0.1c-0.1,0-0.2,0.1-0.2,0.1c-0.3,0.1-0.7,0.1-1,0.2c-0.3,0.1-0.6,0.2-0.8,0.5c-19.4,8.1-31.3,26.8-27.9,48.1
			c1.4,8.9,5.5,16,11.6,22.4c6.8,7.1,15.6,13.7,25.8,13.5c0.2,0,0.3-0.1,0.5-0.1c23.9-1.6,47.7-3.6,71.5-5.3c2.5-0.2,2.4,0.7,5,0.5
			c-8.5,9-13.9,17.2-22.2,26.4c-6.3,7-15.1,14.7-22.1,21c-7.2,6.4-15.5,9.4-25.3,7.9c-2.9-0.4-3.5-0.6-6.2-1.8
			c11.6-0.4,20.8-9.3,28.5-17.1c4.6-4.7,9.1-9.4,13.3-14.5c5.5-6.6,10.8-13.4,17.8-18.5c1.3-1-3.2,0.9-4.4,1.8
			c-11.3,8.2-18.2,16.6-27.8,26.6c-7.9,8.2-27.5,25.6-44,10.7c-7.3-6.6-65.6-67-75.6-83.5c-2.3-3.8-5.2-8.3-5.5-12.8
			c-0.3-5.1,2.8-10.4,5.4-14.6c8.5-13.9,20.7-25.8,31.9-37.4c6.6-6.8,14.8-11.9,21.2-18.9c10-10.8,28.1-4.5,28.6-4.1
			c8.3,6.5,16.1,13.5,23.7,20.7c5.1,4.9,9.8,9.2,13.4,15.4c1.2,2.1,4.8,0.9,3.5-1.4c-3.8-6.5-8.6-11.1-14-16.2
			c-7.9-7.5-16-14.7-24.5-21.4c-0.6-0.4-20-10.6-33.4,4.6C393,754.4,380.3,763,370.2,773.8z M445.8,871.3c-0.8,0.1-1.5,0.1-2.3,0.2
			c-0.1,0-0.3-0.1-0.4-0.1c-9.1,0.1-16.8-5.7-23-11.8c-5.8-5.8-9.6-12.1-11.2-20.3c-3.8-20.4,9.5-37.7,27.9-44.7
			c24.1-4.5,48.5-7.4,72.8-10.5c13-1.7,26-3.3,39-4.6c2.7-0.3,5.3-0.5,8-0.8c-1.1,0.4-2.3,0.9-3.4,1.4c-8,3.8-13.3,11.7-16.6,19.6
			c-6.4,15.2-5.1,35.5,7.1,47.4c7.4,7.2,17.6,12.1,27.4,14.8c0.1,0,0.2,0.1,0.4,0.1c-2.7,0.2-5.3,0.4-7.9,0.6
			c-13.8,0.9-27.6,1.9-41.4,2.9C496.8,867.5,471.3,869.5,445.8,871.3z"/>
		<path fill="#1E1002" d="M456.8,930.4c-24.2,6.3-48.9,9.7-73.8,10.4c-13.1,0.4-26.2-0.1-39.3-1.1c-14.1-1.1-28.8-0.5-42.5-4.5
			c-2.5-0.7-2.6,0.9-0.5,1.6c13.1,3.9,26.7,5.5,40.2,6.7c13,1.1,26,1.6,39,1.4c26.3-0.3,61.8-1.5,85.2-15.9
			C467,927.6,458.9,929.8,456.8,930.4z"/>
		<path fill="#1E1002" d="M248.7,807.7c9.2-11,17.9-23.3,28.8-32.7c12.2-10.5,25.8-18.2,39.6-26.4c14.2-8.5,33-15,49.2-18.5
			c17.1-3.7,32.4-1.1,49.4,2.5c2.2,0.5,2.4-4.2,0.5-4.6c-16.4-3.5-33.8-5.6-50.5-2.8c-16.6,2.8-32.3,9.7-46.8,17.9
			c-14.7,8.3-28.3,18.6-41,29.7c-11.4,10-20.3,21.8-30,33.4C246.6,807.7,247.1,809.7,248.7,807.7z"/>
		<path fill="#1E1002" d="M221.7,860c8.9-14.1,18.2-32.8,27.1-47c0.7-1.1-2.8-3.3-3.5-2.1c-8.9,14.1-17.6,35.6-26.5,49.7
			C218.1,861.8,220.9,861.1,221.7,860z"/>
		<path fill="#1E1002" d="M251.8,849.1c0.4-0.2-2.8-2-3.7-1.5c-4.9,2.9-9.8,7-9.7,13.2c0.1,5.1,3.8,9.7,7,13.3
			c4.4,4.9,9.6,9,14.6,13.2c6.3,5.3,11.8,11.3,17.4,17.4c7.7,8.3,16,15.7,26.5,20.1c10.2,4.2,22.3,4.6,33.2,5.3
			c12.2,0.7,24.4,0.5,36.5-0.1c12.1-0.7,24.2-0.7,36.3-1.2c4.9-0.2,9.7-0.7,14.5-1.5c4-0.6,8.9-3.6,13-2.6c2.8,0.6,0.7-0.9-0.7-1.3
			c-3.5-0.8-6.7-0.1-10.1,0.9c-6,1.8-12.2,2.4-18.5,2.8c-12.1,0.7-24.2,0.4-36.3,1.2c-12.9,0.8-25.9,0.9-38.8,0.2
			c-6.4-0.4-12.7-1.1-19-2c-8.7-1.3-15.9-5.2-22.6-10.8c-8.3-6.9-14.8-15.6-22.6-22.9c-4.6-4.4-9.7-8.2-14.5-12.5
			c-4.5-4-9.1-8.6-11.3-14.3c-2.3-5.9,0.8-11.1,5.5-14.7C249.6,850.5,250.7,849.8,251.8,849.1z"/>
		<path fill="#1E1002" d="M310,760.5c-13.9,8.7-26.9,18.9-39.3,29.5c-6,5.1-11.2,9.9-14.9,17c-4.1,7.8-3.9,17.6-7.5,25.7
			c-0.5,1.1,0.7,1.8,1.2,0.9c3.2-7.2,5.5-14.8,8.7-22c3.4-7.7,8.6-12.9,14.8-18.4c11.3-9.9,23.2-19.1,35.7-27.4
			c24.7-16.4,88.8-21,89.2-21.3c2.1-1.8-1.2-3-2.7-3.7C393.3,739.8,334.7,745,310,760.5z"/>
		<path fill="#1E1002" d="M415.9,746.8c-0.9-0.6-4.6,2.6-3.4,3.4c13.7,8.8,25.9,22.1,39,31.8c0.9,0.7,4.8,0.2,3.6-0.7
			C442,771.6,429.7,755.6,415.9,746.8z"/>
	</g>
</g>
<g>
	<g>
		<path fill="#1E1002" d="M502.2,729.4c-11.5,1.5-17-11.6-20.5-19.9c-5.5-13.2-9.4-27.6-13.2-41.3c-6.2-22.2-10.3-45-12.3-68
			c-0.7-8.6-1.3-17.2-1.5-25.8c-0.1-3.1,0-6.3,0.2-9.4c0.1-1.4,0.2-2.8,0.3-4.2c0-0.3,0.1-0.7,0.2-1c0,0,0,0,0,0
			c0.6,0.3,2.9-4.6,2.1-5c-4.7-2.4-5.1,24.8-5,26.9c1.2,24.8,3.7,49.2,9.2,73.4c4.1,18.4,9.5,37,16,54.8
			c3.4,9.2,10.5,29.2,23.3,27.5C502.4,737.2,502.1,729.4,502.2,729.4z"/>
		<path fill="#1E1002" d="M466.4,553.2c56.4-9.8,111.7-18.9,168.1-28.7c2.6-0.5,2.6-5.9-0.3-5.4c-56.4,9.8-112.5,21.4-168.9,31.2
			C462.8,550.8,463.5,553.7,466.4,553.2z"/>
		<path fill="#1E1002" d="M811,680.5c4.5-2.5,5.9-8,6.8-12.6c2.6-13.9,1.1-28.9-0.1-42.9c-1.2-14.2-3.1-28.3-5.7-42.3
			c-3.5-18.9-9.1-37.5-16-55.4c-3-7.8-6.4-15.5-11.1-22.4c-2.2-3.2-5.4-7.2-9.6-6.9c-0.3-0.1-4-0.6-4.9,0.1
			c1.1-1.4-84.7,13-127.5,20.5c-1.5,0.3-2.1,5.6-0.3,5.3c42.5-7.4,84.8-17,127.5-23.2c0.1,0-6.1,9.2-6.9,15.1
			c-0.9,6.8-0.4,13.7-0.1,20.5c0.4,8.3,0.9,16.6,1.6,24.8c1.9,21.2,6.3,42.6,11.6,63.3c4.4,17.3,9.4,38.2,21.9,51.7
			c0.6,0.7-77.8,17-117.8,24c0-0.1,0-0.2,0-0.2c-8.4,3.6-16.3-17.4-18.5-22.4c-5.9-13.3-10.2-27.4-14-41.5
			c-6-22.5-9.2-45.7-10.8-68.9c-0.6-8.6-1.1-17.3-1.3-25.9c-0.1-3.1-2.3,5.2-2.2,7.3c1.3,25.6,3.1,51,8.3,76.2
			c3.8,18.5,9.1,36.8,16.3,54.2c1.8,4.3,7.4,19.9,14.2,24.8c-55.7,9.6-112.9,15.9-168.6,25.5c-2.9,0.5-1,8.6,2.2,8
			c57.5-10,115.2-19.3,172.7-29.3C680.5,707.6,809.4,681.3,811,680.5z M776.2,590.7c-3.5-17.2-6.9-29.1-8-46.6
			c-0.6-9.7-1.6-19.6-0.5-29.3c0.5-4.6,1.7-10,6.1-12.3c5.7-0.5,11.1,12.7,12.8,16.4c5.4,11.1,9.3,23,12.9,34.8
			c5.6,18.6,9.4,31.1,11.8,50.4c2.3,18.3,8.8,53.2-1.2,63.5C804,673.9,784.3,630.7,776.2,590.7z"/>
		<path fill="#1E1002" d="M621.4,535.3c-15.2-4.4-67.4,11.5-85,17.1c-11.3,3.5-31.6,10.9-41.5,17.6c-10.3,6.9-12.8,10.6-16.4,22.2
			c-8,25.4-1.4,56.4,8.9,80.4c8.9,20.8,27,34.3,49.4,37.1c18.2,2.3,77.5-9.9,88.7-12.3c5.6-1.2,24.3-3,29.8-4.2
			c4.5-0.9,2.9-4.6-2.6-3.2c-1.9,0.5-79.2,12.5-96.9,14.4c-23.8,2.6-47-5.1-60.7-25.5c-7.9-11.7-11.8-26.4-14.2-40.1
			c-2.7-15.4-3.1-32.1,3.4-46.4c15.9-34.7,125.8-56.1,134.1-51.7c6.3,3.4,5.9,57.6,6.7,64.5c1.4,11.9,4.5,25.6,7.2,37.3
			c2.9,12.4,9.1,24.4,14,36.2c-0.2-0.5,1.3-3.8,0.7-5.2c-4.2-10.1-8.6-20.1-12.2-30.4c-3.8-11-6-22.7-6.7-34.3
			C624.5,546,626.6,536.8,621.4,535.3z"/>
	</g>
</g>
</svg>
